<?xml version="1.0" encoding="UTF-8" standalone="no"?>
<svg
   id="svg"
   version="1.1"
   width="123.79539"
   height="125.50639"
   viewBox="0 0 123.79539 125.50639"
   sodipodDocname="ssve.svg"
   inkscapeVersion="1.2.1 (9c6d41e410, 2022-07-14)"
   xmlnsInkscape="http://www.inkscape.org/namespaces/inkscape"
   xmlnsSodipodi="http://sodipodi.sourceforge.net/DTD/sodipodi-0.dtd"
   xmlnsSvg="http://www.w3.org/2000/svg"
   sodipodi:docname="ssve.svg"
   inkscape:export-filename="ssve.png"
   inkscape:export-xdpi="96"
   inkscape:export-ydpi="96"
   inkscape:version="1.2.1 (9c6d41e410, 2022-07-14)"
   xmlns:inkscape="http://www.inkscape.org/namespaces/inkscape"
   xmlns:sodipodi="http://sodipodi.sourceforge.net/DTD/sodipodi-0.dtd"
   xmlns="http://www.w3.org/2000/svg"
   xmlns:svg="http://www.w3.org/2000/svg">
  <defs
     id="defs11">
    <clipPath
       clipPathUnits="userSpaceOnUse"
       id="clipPath327">
      <rect
         style="opacity:0.5;fill:#000000"
         id="rect329"
         width="123.79539"
         height="125.50639"
         x="138.0009"
         y="116.53432"
         ry="61.492069" />
    </clipPath>
  </defs>
  <sodipodi:namedview
     id="namedview9"
     pagecolor="#ffffff"
     bordercolor="#666666"
     borderopacity="1.0"
     inkscapeShowpageshadow="2"
     inkscapePageopacity="0.0"
     inkscapePagecheckerboard="0"
     inkscapeDeskcolor="#d1d1d1"
     showgrid="false"
     inkscapeZoom="3.5636328"
     inkscapeCx="164.85986"
     inkscapeCy="159.52822"
     inkscapeWindow-width="1904"
     inkscapeWindow-height="921"
     inkscapeWindow-x="1928"
     inkscapeWindow-y="49"
     inkscapeWindow-maximized="0"
     inkscapeCurrent-layer="svgg"
     inkscape:showpageshadow="2"
     inkscape:pageopacity="0.0"
     inkscape:pagecheckerboard="0"
     inkscape:deskcolor="#d1d1d1"
     inkscape:zoom="6.2705969"
     inkscape:cx="62.115299"
     inkscape:cy="63.072146"
     inkscape:window-width="1904"
     inkscape:window-height="921"
     inkscape:window-x="1928"
     inkscape:window-y="49"
     inkscape:window-maximized="0"
     inkscape:current-layer="svg" />
  <g
     id="svgg"
     style="display:inline"
     transform="translate(-138.0009,-116.53432)">
    <path
       id="path0"
       d="m 193.5,146.75 c 0,0.157 -1.578,0.25 -4.235,0.25 -2.554,0 -4.297,0.099 -4.39,0.25 -0.085,0.137 -0.422,0.25 -0.75,0.25 -0.328,0 -0.665,0.113 -0.75,0.25 -0.085,0.137 -0.535,0.25 -1,0.25 -0.465,0 -0.915,0.113 -1,0.25 -0.085,0.137 -0.542,0.25 -1.015,0.25 -0.604,0 -0.86,0.113 -0.86,0.381 0,0.21 -0.253,0.481 -0.562,0.603 -1.376,0.542 -4.095,4.039 -5.552,7.141 -0.388,0.825 -1.083,2.082 -1.545,2.792 -0.463,0.711 -0.841,1.449 -0.841,1.641 0,0.191 -0.225,0.814 -0.5,1.383 -0.275,0.569 -0.5,1.202 -0.5,1.407 0,0.205 -0.113,0.442 -0.25,0.527 -0.137,0.085 -0.25,0.373 -0.25,0.64 0,0.638 -0.553,0.617 -1.149,-0.042 -0.684,-0.758 -3.205,-1.973 -4.094,-1.973 -0.416,0 -0.757,-0.113 -0.757,-0.25 0,-0.351 -1.147,-0.312 -1.816,0.063 -1.317,0.736 -1.684,1.246 -1.684,2.341 0,0.586 -0.113,1.136 -0.25,1.221 -0.343,0.212 -0.316,2.636 0.039,3.388 0.558,1.181 4.711,2.493 4.711,1.487 0,-0.139 0.667,-0.25 1.5,-0.25 1.333,0 1.5,0.056 1.5,0.5 0,0.275 -0.099,0.5 -0.221,0.5 -0.121,0 -0.28,0.225 -0.351,0.5 -0.072,0.275 -0.31,0.5 -0.53,0.5 -0.226,0 -0.398,0.207 -0.398,0.479 0,0.264 -0.562,1.32 -1.25,2.348 -0.687,1.028 -1.25,2.099 -1.25,2.381 0,0.282 -0.113,0.582 -0.25,0.667 -0.137,0.085 -0.25,0.535 -0.25,1 0,0.465 -0.113,0.915 -0.25,1 -0.137,0.085 -0.25,0.535 -0.25,1 0,0.465 -0.113,0.915 -0.25,1 -0.144,0.089 -0.25,1.419 -0.25,3.14 0,1.823 0.097,2.985 0.25,2.985 0.148,0 0.25,0.917 0.25,2.25 0,1.333 0.102,2.25 0.25,2.25 0.146,0 0.25,0.828 0.25,1.985 0,1.092 0.113,2.055 0.25,2.14 0.137,0.085 0.25,0.462 0.25,0.837 0,0.805 1.54,3.888 2.4,4.802 0.33,0.351 0.6,0.721 0.6,0.823 0,0.101 0.225,0.425 0.5,0.721 0.416,0.446 0.5,0.882 0.5,2.599 0,1.135 0.113,2.133 0.25,2.218 0.137,0.085 0.253,0.401 0.257,0.702 0.014,1.124 1.8,1.673 5.44,1.673 4.089,0 5.053,-0.462 5.053,-2.425 0,-0.316 0.113,-0.575 0.25,-0.575 0.137,0 0.25,-0.338 0.25,-0.75 0,-0.412 -0.113,-0.75 -0.25,-0.75 -0.137,0 -0.25,-0.113 -0.25,-0.25 0,-0.137 0.225,-0.25 0.5,-0.25 0.275,0 0.5,-0.113 0.5,-0.25 0,-0.137 -0.113,-0.25 -0.25,-0.25 -0.137,0 -0.25,-0.113 -0.25,-0.25 0,-0.157 1.537,-0.25 4.11,-0.25 2.471,0 4.172,0.1 4.265,0.25 0.096,0.155 2.414,0.25 6.125,0.25 3.711,0 6.029,-0.095 6.125,-0.25 0.085,-0.137 0.418,-0.25 0.74,-0.25 0.37,0 0.848,-0.326 1.298,-0.886 0.392,-0.488 1.19,-1.428 1.775,-2.089 l 1.062,-1.202 v -4.647 c 0,-2.828 -0.098,-4.707 -0.25,-4.801 -0.137,-0.085 -0.258,-0.401 -0.268,-0.702 -0.02,-0.6 -0.095,-0.728 -2.521,-4.328 -0.916,-1.359 -2.069,-2.858 -2.563,-3.332 -0.494,-0.473 -0.898,-1.008 -0.898,-1.187 0,-0.179 -0.225,-0.326 -0.5,-0.326 -0.333,0 -0.5,-0.167 -0.5,-0.5 0,-0.275 -0.141,-0.501 -0.312,-0.501 -0.172,-0.001 -0.688,-0.353 -1.147,-0.783 -1.344,-1.26 -1.918,-0.479 -0.82,1.117 0.428,0.623 0.779,1.239 0.779,1.37 0,0.131 0.212,0.294 0.472,0.362 0.397,0.104 3.028,3.626 3.028,4.054 0,0.077 0.306,0.617 0.68,1.198 1.845,2.872 2.363,5.071 1.472,6.246 -0.359,0.472 -1.77,0.603 -2.027,0.187 -0.085,-0.137 -0.408,-0.25 -0.718,-0.25 -0.31,0 -0.887,-0.338 -1.282,-0.75 -0.395,-0.412 -0.954,-0.75 -1.241,-0.75 -0.536,0 -3.884,-3.15 -3.884,-3.655 0,-0.147 -0.225,-0.471 -0.5,-0.72 -0.275,-0.249 -0.5,-0.586 -0.5,-0.75 0,-0.164 -0.225,-0.501 -0.5,-0.75 -0.275,-0.249 -0.5,-0.59 -0.5,-0.758 0,-0.168 -0.166,-0.444 -0.37,-0.613 -0.561,-0.466 -1.13,-1.745 -1.13,-2.542 0,-0.392 -0.113,-0.712 -0.25,-0.712 -0.158,0 -0.25,-1.833 -0.25,-5 0,-3.167 0.092,-5 0.25,-5 0.137,0 0.25,-0.45 0.25,-1 0,-0.55 0.113,-1 0.25,-1 0.137,0 0.25,-0.338 0.25,-0.75 0,-0.547 0.118,-0.751 0.438,-0.752 0.408,-0.002 1.062,-1.001 1.062,-1.624 0,-0.435 1.236,-2.801 1.637,-3.134 0.2,-0.166 0.363,-0.512 0.363,-0.771 0,-0.354 0.183,-0.469 0.75,-0.469 0.495,0 0.75,0.126 0.75,0.369 0,0.203 0.225,0.737 0.499,1.187 0.275,0.451 0.5,1.012 0.5,1.248 0.003,1.426 2.387,4.3 5.049,6.086 0.927,0.622 1.752,1.238 1.833,1.37 0.082,0.132 0.367,0.24 0.634,0.24 0.318,0 0.485,0.172 0.485,0.5 0,0.389 0.167,0.5 0.75,0.5 0.583,0 0.75,0.111 0.75,0.5 0,0.275 0.147,0.5 0.326,0.5 0.592,0 5.872,5.572 6.045,6.38 0.087,0.41 0.265,0.94 0.394,1.179 0.934,1.727 -1.08,7.62 -3.013,8.815 -0.139,0.086 -0.252,0.536 -0.252,1.001 0,0.465 -0.113,0.915 -0.25,1 -0.137,0.085 -0.25,0.485 -0.25,0.89 0,0.404 0.113,0.735 0.25,0.735 0.137,0 0.25,0.275 0.25,0.61 0,0.336 -0.113,0.68 -0.25,0.765 -0.137,0.085 -0.25,0.637 -0.25,1.226 0,0.754 -0.148,1.206 -0.5,1.524 -0.284,0.257 -0.5,0.77 -0.5,1.188 0,0.404 -0.338,1.35 -0.75,2.101 -0.412,0.752 -0.75,1.641 -0.75,1.976 0,0.511 0.122,0.61 0.75,0.61 0.412,0 0.75,0.113 0.75,0.25 0,0.155 1.333,0.25 3.5,0.25 2.167,0 3.5,-0.095 3.5,-0.25 0,-0.153 1.203,-0.25 3.11,-0.25 1.804,0 3.175,0.105 3.265,0.25 0.085,0.137 0.485,0.25 0.89,0.25 0.541,0 0.735,0.119 0.735,0.45 0,0.248 0.135,0.585 0.3,0.75 0.233,0.233 0.233,0.3 0,0.3 -0.432,0 -0.373,1.527 0.095,2.466 0.65,1.303 1.419,1.534 5.096,1.534 3.832,0 4.772,-0.347 5.636,-2.079 0.411,-0.824 0.51,-2.921 0.138,-2.921 -0.483,0 0.706,-1.772 2.673,-3.983 1.039,-1.168 1.36,-2.017 0.762,-2.017 -0.233,0 -0.233,-0.067 0,-0.3 0.165,-0.165 0.3,-0.615 0.3,-1 0,-0.385 0.113,-0.7 0.25,-0.7 0.139,0 0.25,-0.667 0.25,-1.5 0,-0.833 0.111,-1.5 0.25,-1.5 0.137,0 0.25,-0.562 0.25,-1.25 0,-0.687 0.113,-1.25 0.25,-1.25 0.545,0 0.313,-12.622 -0.25,-13.625 -0.275,-0.49 -0.5,-1.026 -0.5,-1.193 0,-0.576 -1.753,-3.848 -2.375,-4.432 -0.344,-0.323 -0.625,-0.736 -0.625,-0.919 0,-0.182 -0.113,-0.331 -0.25,-0.331 -0.361,0 -0.308,-0.931 0.063,-1.104 0.25,-0.117 0.25,-0.175 0,-0.292 -0.172,-0.08 -0.313,-0.249 -0.313,-0.375 0,-0.312 2.181,-0.292 2.375,0.021 0.441,0.714 3.349,0.057 4.147,-0.936 2.04,-2.539 0.769,-7.314 -1.947,-7.314 -0.316,0 -0.575,-0.113 -0.575,-0.25 0,-0.419 -1.182,-0.28 -2.125,0.25 -0.49,0.275 -1.016,0.5 -1.169,0.5 -0.154,0 -0.856,0.383 -1.561,0.851 -2.053,1.362 -2.82,0.987 -2.707,-1.321 0.01,-0.189 -0.198,-0.727 -0.46,-1.195 -0.263,-0.468 -0.478,-1.058 -0.478,-1.312 0,-0.254 -0.174,-0.606 -0.386,-0.782 -0.213,-0.177 -0.332,-0.464 -0.265,-0.638 0.152,-0.397 -1.368,-3.45 -2.113,-4.242 -0.305,-0.326 -0.681,-0.805 -0.833,-1.066 -1.373,-2.341 -3.465,-4.48 -4.903,-5.013 -0.481,-0.178 -1.07,-0.427 -1.309,-0.553 -0.239,-0.126 -0.767,-0.229 -1.173,-0.229 -0.406,0 -0.808,-0.113 -0.893,-0.25 -0.085,-0.137 -0.422,-0.25 -0.75,-0.25 -0.328,0 -0.665,-0.113 -0.75,-0.25 -0.093,-0.15 -1.753,-0.25 -4.14,-0.25 -2.49,0 -3.985,-0.094 -3.985,-0.25 0,-0.161 -2.5,-0.25 -7,-0.25 -4.5,0 -7,0.089 -7,0.25"
       stroke="none"
       fill="#fbfbfb"
       fill-rule="evenodd" />
    <path
       id="path1"
       d="m 199,115.225 c 0,0.123 -1.547,0.24 -3.437,0.26 -1.934,0.02 -3.474,0.141 -3.521,0.275 -0.046,0.132 -0.749,0.24 -1.563,0.24 -0.819,0 -1.479,0.112 -1.479,0.25 0,0.139 -0.667,0.25 -1.5,0.25 -0.833,0 -1.5,0.111 -1.5,0.25 0,0.138 -0.45,0.25 -1,0.25 -0.55,0 -1,0.112 -1,0.25 0,0.138 -0.225,0.25 -0.5,0.25 -0.275,0 -0.5,0.112 -0.5,0.25 0,0.138 -0.45,0.25 -1,0.25 -0.55,0 -1,0.112 -1,0.25 0,0.138 -0.338,0.25 -0.75,0.25 -0.412,0 -0.75,0.112 -0.75,0.25 0,0.138 -0.338,0.25 -0.75,0.25 -0.412,0 -0.75,0.112 -0.75,0.25 0,0.138 -0.225,0.25 -0.5,0.25 -0.275,0 -0.5,0.112 -0.5,0.25 0,0.138 -0.338,0.25 -0.75,0.25 -0.412,0 -0.75,0.112 -0.75,0.25 0,0.138 -0.225,0.25 -0.5,0.25 -0.275,0 -0.5,0.112 -0.5,0.25 0,0.138 -0.338,0.25 -0.75,0.25 -0.412,0 -0.75,0.112 -0.75,0.25 0,0.138 -0.225,0.25 -0.5,0.25 -0.275,0 -0.5,0.112 -0.5,0.25 0,0.138 -0.225,0.25 -0.5,0.25 -0.275,0 -0.5,0.112 -0.5,0.25 0,0.138 -0.2,0.25 -0.445,0.25 -0.244,0 -0.607,0.225 -0.805,0.5 -0.198,0.275 -0.561,0.5 -0.805,0.5 -0.245,0 -0.445,0.112 -0.445,0.25 0,0.138 -0.225,0.25 -0.5,0.25 -0.275,0 -0.5,0.112 -0.5,0.25 0,0.138 -0.18,0.25 -0.4,0.25 -0.22,0 -0.715,0.338 -1.1,0.75 -0.385,0.412 -0.88,0.75 -1.1,0.75 -0.22,0 -0.4,0.112 -0.4,0.25 0,0.138 -0.18,0.25 -0.4,0.25 -0.22,0 -0.715,0.338 -1.1,0.75 -0.385,0.412 -0.833,0.75 -0.995,0.75 -0.162,0 -0.727,0.45 -1.255,1 -0.528,0.55 -1.083,1 -1.232,1 -0.353,0 -9.518,9.163 -9.518,9.516 0,0.4 -0.657,0.984 -1.107,0.984 -0.27,0 -0.393,0.235 -0.393,0.75 0,0.583 -0.111,0.75 -0.5,0.75 -0.38,0 -0.5,0.167 -0.5,0.695 0,0.408 -0.206,0.843 -0.5,1.055 -0.275,0.198 -0.5,0.561 -0.5,0.805 0,0.245 -0.113,0.445 -0.25,0.445 -0.137,0 -0.25,0.237 -0.25,0.527 0,0.346 -0.119,0.481 -0.347,0.393 -0.244,-0.093 -0.309,0.011 -0.219,0.355 0.08,0.305 -0.072,0.661 -0.403,0.948 -0.292,0.253 -0.531,0.656 -0.531,0.896 0,0.268 -0.133,0.383 -0.347,0.301 -0.244,-0.093 -0.309,0.011 -0.219,0.355 0.08,0.305 -0.072,0.661 -0.403,0.948 -0.292,0.253 -0.531,0.644 -0.531,0.869 0,0.224 -0.113,0.408 -0.25,0.408 -0.137,0 -0.25,0.225 -0.25,0.5 0,0.275 -0.113,0.5 -0.25,0.5 -0.137,0 -0.25,0.237 -0.25,0.527 0,0.338 -0.12,0.48 -0.336,0.398 -0.241,-0.093 -0.303,0.042 -0.221,0.473 0.066,0.345 -0.004,0.602 -0.164,0.602 -0.153,0 -0.279,0.338 -0.279,0.75 0,0.412 -0.113,0.75 -0.25,0.75 -0.137,0 -0.25,0.313 -0.25,0.695 0,0.408 -0.206,0.843 -0.5,1.055 -0.294,0.212 -0.5,0.647 -0.5,1.055 0,0.382 -0.113,0.695 -0.25,0.695 -0.137,0 -0.25,0.45 -0.25,1 0,0.55 -0.113,1 -0.25,1 -0.137,0 -0.25,0.338 -0.25,0.75 0,0.412 -0.113,0.75 -0.25,0.75 -0.137,0 -0.25,0.563 -0.25,1.25 0,0.688 -0.113,1.25 -0.25,1.25 -0.137,0 -0.25,0.225 -0.25,0.5 0,0.275 -0.113,0.5 -0.25,0.5 -0.137,0 -0.25,0.563 -0.25,1.25 0,0.688 -0.113,1.25 -0.25,1.25 -0.146,0 -0.25,0.833 -0.25,2 0,1.167 -0.104,2 -0.25,2 -0.161,0 -0.25,2.583 -0.25,7.25 0,4.667 0.089,7.25 0.25,7.25 0.139,0 0.25,0.667 0.25,1.5 0,0.833 0.111,1.5 0.25,1.5 0.143,0 0.25,0.75 0.25,1.75 0,1 0.107,1.75 0.25,1.75 0.137,0 0.25,0.225 0.25,0.5 0,0.275 0.113,0.5 0.25,0.5 0.137,0 0.25,0.563 0.25,1.25 0,0.688 0.113,1.25 0.25,1.25 0.137,0 0.25,0.338 0.25,0.75 0,0.412 0.113,0.75 0.25,0.75 0.137,0 0.25,0.338 0.25,0.75 0,0.412 0.113,0.75 0.25,0.75 0.137,0 0.25,0.338 0.25,0.75 0,0.412 0.113,0.75 0.25,0.75 0.137,0 0.25,0.313 0.25,0.695 0,0.408 0.206,0.843 0.5,1.055 0.348,0.251 0.5,0.647 0.5,1.305 0,0.52 0.113,0.945 0.25,0.945 0.137,0 0.25,0.225 0.25,0.5 0,0.275 0.113,0.5 0.25,0.5 0.137,0 0.25,0.225 0.25,0.5 0,0.275 0.113,0.5 0.25,0.5 0.137,0 0.25,0.225 0.25,0.5 0,0.275 0.113,0.5 0.25,0.5 0.137,0 0.25,0.225 0.25,0.5 0,0.275 0.113,0.5 0.25,0.5 0.137,0 0.25,0.18 0.25,0.4 0,0.22 0.338,0.715 0.75,1.1 0.427,0.399 0.75,0.957 0.75,1.295 0,0.327 0.225,0.757 0.5,0.955 0.275,0.198 0.5,0.561 0.5,0.805 0,0.245 0.113,0.445 0.25,0.445 0.137,0 0.25,0.18 0.25,0.4 0,0.22 0.338,0.715 0.75,1.1 0.412,0.385 0.75,0.835 0.75,1 0,0.165 0.337,0.615 0.75,1 0.412,0.385 0.75,0.833 0.75,0.995 0,0.162 0.45,0.727 1,1.255 0.55,0.528 1,1.083 1,1.233 0,0.354 5.16,5.517 5.513,5.517 0.148,0 0.817,0.562 1.487,1.25 0.67,0.687 1.348,1.25 1.508,1.25 0.16,0 0.607,0.337 0.992,0.75 0.385,0.412 0.835,0.75 1,0.75 0.165,0 0.615,0.338 1,0.75 0.385,0.412 0.856,0.75 1.045,0.75 0.19,0 0.507,0.225 0.705,0.5 0.198,0.275 0.561,0.5 0.805,0.5 0.245,0 0.445,0.113 0.445,0.25 0,0.137 0.2,0.25 0.445,0.25 0.244,0 0.607,0.225 0.805,0.5 0.198,0.275 0.561,0.5 0.805,0.5 0.245,0 0.445,0.113 0.445,0.25 0,0.137 0.225,0.25 0.5,0.25 0.275,0 0.5,0.113 0.5,0.25 0,0.137 0.225,0.25 0.5,0.25 0.275,0 0.5,0.113 0.5,0.25 0,0.137 0.177,0.25 0.393,0.25 0.216,0 0.567,0.174 0.78,0.387 0.213,0.213 0.711,0.452 1.107,0.532 0.396,0.079 0.72,0.242 0.72,0.362 0,0.121 0.313,0.219 0.695,0.219 0.408,0 0.843,0.206 1.055,0.5 0.251,0.348 0.647,0.5 1.305,0.5 0.52,0 0.945,0.113 0.945,0.25 0,0.137 0.225,0.25 0.5,0.25 0.275,0 0.5,0.113 0.5,0.25 0,0.137 0.216,0.25 0.479,0.25 0.264,0 0.536,0.141 0.606,0.313 0.096,0.236 0.189,0.223 0.382,-0.055 0.216,-0.312 0.327,-0.283 0.736,0.188 0.332,0.382 0.762,0.554 1.389,0.554 0.499,0 0.908,0.113 0.908,0.25 0,0.137 0.45,0.25 1,0.25 0.55,0 1,0.113 1,0.25 0,0.137 0.441,0.25 0.979,0.25 0.549,0 1.035,0.137 1.106,0.313 0.096,0.235 0.198,0.22 0.415,-0.063 0.217,-0.283 0.319,-0.298 0.415,-0.062 0.077,0.19 0.607,0.312 1.356,0.312 0.676,0 1.229,0.113 1.229,0.25 0,0.139 0.667,0.25 1.5,0.25 0.833,0 1.5,0.111 1.5,0.25 0,0.154 1.243,0.25 3.229,0.25 2.339,0 3.27,0.086 3.375,0.313 0.117,0.25 0.175,0.25 0.292,0 0.103,-0.223 0.936,-0.313 2.875,-0.313 1.653,0 2.729,-0.099 2.729,-0.25 0,-0.147 0.872,-0.25 2.117,-0.25 1.654,0 2.313,-0.109 3.008,-0.5 0.558,-0.314 1.354,-0.5 2.133,-0.5 0.683,0 1.242,-0.113 1.242,-0.25 0,-0.137 0.45,-0.25 1,-0.25 0.55,0 1,-0.113 1,-0.25 0,-0.137 0.338,-0.25 0.75,-0.25 0.412,0 0.75,-0.113 0.75,-0.25 0,-0.137 0.278,-0.25 0.617,-0.25 0.34,0 1.018,-0.225 1.508,-0.5 0.49,-0.275 1.152,-0.5 1.472,-0.5 0.587,0 3.707,-1.464 3.861,-1.812 0.046,-0.104 0.327,-0.187 0.625,-0.186 0.563,0.002 4.669,-1.941 4.954,-2.344 0.089,-0.126 0.389,-0.17 0.666,-0.098 0.353,0.092 0.752,-0.123 1.325,-0.714 0.465,-0.479 1.07,-0.846 1.396,-0.846 0.317,0 0.576,-0.1 0.576,-0.222 0,-0.121 0.378,-0.401 0.841,-0.62 0.462,-0.219 0.982,-0.57 1.155,-0.778 0.173,-0.209 0.449,-0.38 0.613,-0.38 0.164,0 0.621,-0.338 1.016,-0.75 0.395,-0.412 0.842,-0.75 0.992,-0.75 0.151,0 0.942,-0.675 1.758,-1.5 0.816,-0.825 1.603,-1.5 1.748,-1.5 0.336,0 4.377,-4.051 4.377,-4.388 0,-0.139 0.675,-0.921 1.5,-1.737 0.825,-0.816 1.5,-1.611 1.5,-1.766 0,-0.155 0.225,-0.485 0.5,-0.734 0.275,-0.249 0.5,-0.583 0.5,-0.742 0,-0.159 0.338,-0.613 0.75,-1.008 0.412,-0.395 0.75,-0.849 0.75,-1.008 0,-0.159 0.225,-0.493 0.5,-0.742 0.275,-0.249 0.5,-0.586 0.5,-0.75 0,-0.164 0.225,-0.501 0.5,-0.75 0.275,-0.249 0.5,-0.66 0.5,-0.914 0,-0.253 0.113,-0.461 0.25,-0.461 0.137,0 0.25,-0.225 0.25,-0.5 0,-0.275 0.113,-0.5 0.25,-0.5 0.137,0 0.25,-0.225 0.25,-0.5 0,-0.275 0.113,-0.5 0.25,-0.5 0.137,0 0.25,-0.151 0.25,-0.336 0,-0.185 0.225,-0.54 0.5,-0.789 0.275,-0.249 0.5,-0.66 0.5,-0.914 0,-0.253 0.113,-0.461 0.25,-0.461 0.137,0 0.25,-0.338 0.25,-0.75 0,-0.412 0.113,-0.75 0.25,-0.75 0.137,0 0.25,-0.225 0.25,-0.5 0,-0.275 0.113,-0.5 0.25,-0.5 0.137,0 0.25,-0.225 0.25,-0.5 0,-0.275 0.113,-0.5 0.25,-0.5 0.137,0 0.25,-0.338 0.25,-0.75 0,-0.412 0.113,-0.75 0.25,-0.75 0.137,0 0.25,-0.225 0.25,-0.5 0,-0.275 0.113,-0.5 0.25,-0.5 0.137,0 0.25,-0.338 0.25,-0.75 0,-0.412 0.113,-0.75 0.25,-0.75 0.137,0 0.25,-0.338 0.25,-0.75 0,-0.412 0.113,-0.75 0.25,-0.75 0.137,0 0.25,-0.45 0.25,-1 0,-0.55 0.113,-1 0.25,-1 0.137,0 0.25,-0.338 0.25,-0.75 0,-0.412 0.113,-0.75 0.25,-0.75 0.137,0 0.25,-0.562 0.25,-1.25 0,-0.687 0.113,-1.25 0.25,-1.25 0.137,0 0.25,-0.45 0.25,-1 0,-0.55 0.113,-1 0.25,-1 0.156,0 0.25,-1.5 0.25,-4 0,-2.5 0.094,-4 0.25,-4 0.158,0 0.25,-1.75 0.25,-4.75 0,-3 -0.092,-4.75 -0.25,-4.75 -0.146,0 -0.25,-0.833 -0.25,-2 0,-1.167 -0.104,-2 -0.25,-2 -0.139,0 -0.25,-0.667 -0.25,-1.5 0,-0.833 -0.111,-1.5 -0.25,-1.5 -0.137,0 -0.25,-0.45 -0.25,-1 0,-0.55 -0.113,-1 -0.25,-1 -0.137,0 -0.25,-0.45 -0.25,-1 0,-0.55 -0.113,-1 -0.25,-1 -0.137,0 -0.25,-0.338 -0.25,-0.75 0,-0.412 -0.113,-0.75 -0.25,-0.75 -0.137,0 -0.25,-0.338 -0.25,-0.75 0,-0.412 -0.113,-0.75 -0.25,-0.75 -0.137,0 -0.25,-0.225 -0.25,-0.5 0,-0.275 -0.113,-0.5 -0.25,-0.5 -0.137,0 -0.25,-0.216 -0.25,-0.479 0,-0.264 -0.141,-0.536 -0.312,-0.606 -0.236,-0.096 -0.221,-0.198 0.062,-0.415 0.283,-0.217 0.298,-0.319 0.063,-0.415 -0.172,-0.07 -0.313,-0.342 -0.313,-0.606 0,-0.263 -0.113,-0.479 -0.25,-0.479 -0.137,0 -0.25,-0.338 -0.25,-0.75 0,-0.412 -0.113,-0.75 -0.25,-0.75 -0.137,0 -0.25,-0.225 -0.25,-0.5 0,-0.275 -0.113,-0.5 -0.25,-0.5 -0.137,0 -0.25,-0.173 -0.25,-0.385 0,-0.212 -0.225,-0.627 -0.5,-0.923 -0.275,-0.295 -0.5,-0.796 -0.5,-1.114 0,-0.318 -0.113,-0.578 -0.25,-0.578 -0.137,0 -0.25,-0.225 -0.25,-0.5 0,-0.275 -0.113,-0.5 -0.25,-0.5 -0.137,0 -0.25,-0.225 -0.25,-0.5 0,-0.275 -0.093,-0.5 -0.208,-0.5 -0.114,0 -0.367,-0.309 -0.562,-0.687 -0.195,-0.379 -0.552,-0.906 -0.792,-1.173 -0.241,-0.266 -0.438,-0.632 -0.438,-0.812 0,-0.18 -0.113,-0.328 -0.25,-0.328 -0.137,0 -0.25,-0.17 -0.25,-0.377 0,-0.208 -0.338,-0.731 -0.75,-1.162 -0.412,-0.432 -0.75,-0.937 -0.75,-1.123 0,-0.186 -0.093,-0.338 -0.208,-0.338 -0.114,0 -0.367,-0.309 -0.562,-0.687 -0.195,-0.379 -0.889,-1.235 -1.542,-1.903 -0.654,-0.668 -1.188,-1.343 -1.188,-1.5 0,-0.345 -5.609,-5.91 -5.956,-5.91 -0.134,0 -0.818,-0.562 -1.52,-1.25 -0.702,-0.687 -1.445,-1.25 -1.65,-1.25 -0.207,0 -0.374,-0.223 -0.374,-0.5 0,-0.333 -0.167,-0.5 -0.5,-0.5 -0.275,0 -0.5,-0.112 -0.5,-0.25 0,-0.138 -0.2,-0.25 -0.445,-0.25 -0.244,0 -0.607,-0.225 -0.805,-0.5 -0.198,-0.275 -0.561,-0.5 -0.805,-0.5 -0.278,0 -0.445,-0.187 -0.445,-0.5 0,-0.389 -0.167,-0.5 -0.75,-0.5 -0.412,0 -0.75,-0.112 -0.75,-0.25 0,-0.138 -0.2,-0.25 -0.445,-0.25 -0.244,0 -0.607,-0.225 -0.805,-0.5 -0.198,-0.275 -0.561,-0.5 -0.805,-0.5 -0.245,0 -0.445,-0.112 -0.445,-0.25 0,-0.138 -0.225,-0.25 -0.5,-0.25 -0.275,0 -0.5,-0.112 -0.5,-0.25 0,-0.138 -0.225,-0.25 -0.5,-0.25 -0.275,0 -0.5,-0.112 -0.5,-0.25 0,-0.138 -0.225,-0.25 -0.5,-0.25 -0.275,0 -0.5,-0.112 -0.5,-0.25 0,-0.138 -0.225,-0.25 -0.5,-0.25 -0.275,0 -0.5,-0.112 -0.5,-0.25 0,-0.138 -0.225,-0.25 -0.5,-0.25 -0.275,0 -0.5,-0.112 -0.5,-0.25 0,-0.138 -0.225,-0.25 -0.5,-0.25 -0.275,0 -0.5,-0.112 -0.5,-0.25 0,-0.138 -0.338,-0.25 -0.75,-0.25 -0.412,0 -0.75,-0.112 -0.75,-0.25 0,-0.138 -0.225,-0.25 -0.5,-0.25 -0.275,0 -0.5,-0.112 -0.5,-0.25 0,-0.138 -0.338,-0.25 -0.75,-0.25 -0.412,0 -0.75,-0.112 -0.75,-0.25 0,-0.138 -0.225,-0.25 -0.5,-0.25 -0.275,0 -0.5,-0.112 -0.5,-0.25 0,-0.138 -0.225,-0.25 -0.5,-0.25 -0.275,0 -0.5,-0.112 -0.5,-0.25 0,-0.138 -0.562,-0.25 -1.25,-0.25 -0.687,0 -1.25,-0.112 -1.25,-0.25 0,-0.138 -0.225,-0.25 -0.5,-0.25 -0.275,0 -0.5,-0.112 -0.5,-0.25 0,-0.138 -0.562,-0.25 -1.25,-0.25 -0.687,0 -1.25,-0.112 -1.25,-0.25 0,-0.138 -0.562,-0.25 -1.25,-0.25 -0.687,0 -1.25,-0.112 -1.25,-0.25 0,-0.143 -0.75,-0.25 -1.75,-0.25 -1,0 -1.75,-0.107 -1.75,-0.25 0,-0.155 -1.326,-0.25 -3.479,-0.25 -2.549,0 -3.513,-0.084 -3.606,-0.312 -0.099,-0.243 -0.18,-0.238 -0.365,0.026 -0.166,0.237 -0.289,0.256 -0.409,0.063 -0.205,-0.333 -0.641,-0.368 -0.641,-0.052 m 8.675,31.412 c 0.997,0.266 2.348,0.368 4.325,0.327 2.183,-0.046 3.236,0.048 4.375,0.389 4.873,1.46 4.694,1.378 6.211,2.852 0.803,0.781 2.011,2.228 2.683,3.215 0.673,0.988 1.347,1.872 1.498,1.965 0.349,0.216 1.733,3.188 1.733,3.721 0,0.221 0.109,0.596 0.241,0.835 0.691,1.244 1.259,2.876 1.259,3.62 0,1.664 0.852,1.837 2.785,0.564 0.731,-0.481 1.422,-0.875 1.536,-0.875 0.113,0 0.701,-0.225 1.305,-0.5 1.146,-0.522 1.102,-0.527 3.249,0.358 1.478,0.609 2.125,1.876 2.125,4.162 0,3.722 -1.585,4.69 -6.296,3.844 -0.833,-0.149 -0.908,-0.117 -0.79,0.332 0.071,0.274 0.004,0.575 -0.15,0.671 -0.307,0.189 0.387,1.523 1.369,2.633 0.602,0.68 1.867,3.111 1.867,3.587 0,0.162 0.225,0.715 0.5,1.228 0.564,1.053 0.79,13.976 0.25,14.31 -0.137,0.085 -0.25,0.632 -0.25,1.215 0,0.583 -0.103,1.167 -0.228,1.298 -0.212,0.22 -0.416,1.646 -0.623,4.346 -0.063,0.826 -0.291,1.338 -0.89,2 -2.489,2.755 -2.759,3.256 -2.761,5.136 -0.003,3.435 -1.001,4.126 -5.959,4.128 -4.975,0.003 -5.276,-0.188 -5.524,-3.495 l -0.14,-1.872 -1,-0.229 c -1.128,-0.258 -4.247,-0.264 -9.735,-0.02 -5.686,0.254 -6.496,-0.179 -5.145,-2.747 0.415,-0.789 0.755,-1.726 0.755,-2.082 0,-0.355 0.232,-0.892 0.514,-1.193 0.649,-0.69 1.079,-3.413 0.732,-4.624 -0.157,-0.548 -0.155,-0.927 0.006,-1.088 0.137,-0.137 0.248,-0.559 0.248,-0.938 0,-0.426 0.53,-1.469 1.384,-2.724 3.46,-5.081 3.085,-8.021 -1.596,-12.501 -3.484,-3.334 -3.662,-3.485 -4.121,-3.485 -0.23,0 -0.417,-0.102 -0.417,-0.227 0,-0.125 -0.928,-0.845 -2.062,-1.601 -3.328,-2.216 -5.151,-4.31 -6.301,-7.234 -1.005,-2.558 -2.137,-3.518 -2.137,-1.813 0,0.344 -0.092,0.625 -0.204,0.625 -0.198,0 -1.156,1.919 -1.891,3.788 -0.198,0.503 -0.583,0.985 -0.856,1.071 -0.313,0.1 -0.545,0.454 -0.63,0.962 -0.238,1.437 -0.452,2.294 -0.699,2.809 -0.384,0.799 -0.148,9.01 0.301,10.495 0.829,2.741 5.943,9.375 7.225,9.375 0.235,0 0.623,0.217 0.863,0.482 3.206,3.543 6.375,0.909 3.888,-3.232 -0.536,-0.894 -1.198,-2.027 -1.469,-2.519 -0.881,-1.596 -2.512,-3.941 -2.974,-4.278 -0.914,-0.665 -2.111,-2.629 -1.937,-3.178 0.165,-0.521 1.133,-0.758 1.133,-0.277 0,0.136 0.392,0.502 0.872,0.812 0.479,0.311 0.873,0.698 0.875,0.861 0.002,0.162 0.228,0.367 0.503,0.454 0.275,0.087 0.5,0.265 0.5,0.394 0,0.129 0.593,0.881 1.318,1.671 0.724,0.789 1.59,1.885 1.924,2.435 0.333,0.55 1.032,1.583 1.553,2.296 1.541,2.11 1.697,2.856 1.701,8.117 l 0.004,4.662 -0.812,0.876 c -0.447,0.482 -1.207,1.388 -1.688,2.014 -1.379,1.794 -2.62,1.878 -18.687,1.278 -3.724,-0.14 -3.813,-0.131 -3.813,0.369 0,0.282 -0.113,0.513 -0.25,0.513 -0.137,0 -0.25,0.43 -0.25,0.955 0,3.415 -0.977,4.133 -5.535,4.066 -5.265,-0.077 -5.965,-0.607 -5.965,-4.517 0,-2.06 -0.012,-2.086 -2.074,-4.629 -1.463,-1.805 -2.084,-3.57 -2.461,-7 -0.136,-1.238 -0.356,-3.206 -0.489,-4.375 -0.931,-8.173 -0.084,-13.208 2.795,-16.625 0.232,-0.275 0.499,-0.755 0.594,-1.067 0.094,-0.312 0.501,-0.928 0.903,-1.368 1.087,-1.19 0.977,-1.516 -0.455,-1.353 -4.26,0.487 -4.187,0.488 -5.262,-0.061 -1.663,-0.848 -1.683,-0.945 -1.234,-6.068 0.114,-1.307 2.399,-2.998 3.376,-2.499 0.238,0.121 0.807,0.292 1.264,0.379 1.198,0.227 2.515,0.875 3.696,1.818 l 1.027,0.82 0.285,-0.625 c 0.157,-0.343 0.285,-0.816 0.286,-1.05 0,-0.234 0.225,-0.794 0.5,-1.245 0.274,-0.45 0.499,-1.025 0.499,-1.277 0,-0.253 0.3,-0.897 0.667,-1.432 0.366,-0.534 1.187,-1.984 1.823,-3.222 1.675,-3.26 2.233,-4.035 4.42,-6.145 3.301,-3.185 4.759,-3.449 21.715,-3.938 3.575,-0.103 6.579,-0.211 6.675,-0.239 0.097,-0.029 0.828,0.121 1.625,0.334"
       stroke="none"
       fill="#04cb83"
       fill-rule="evenodd"
       clip-path="url(#clipPath327)"
       inkscapeExport-filename="path1.png"
       inkscapeExport-xdpi="96"
       inkscapeExport-ydpi="96" />
    <path
       id="path2"
       d=""
       stroke="none"
       fill="#5dd49b"
       fill-rule="evenodd" />
    <path
       id="path3"
       d=""
       stroke="none"
       fill="#32c88c"
       fill-rule="evenodd" />
    <path
       id="path4"
       d=""
       stroke="none"
       fill="#84d4a4"
       fill-rule="evenodd" />
  </g>
</svg>
